<svg width="97" height="24" viewBox="0 0 97 24" fill="none" xmlns="http://www.w3.org/2000/svg">
    <path d="M-7.17494e-06 8.08784C5.57704 16.0703 29.8414 24.016 46.1621 23.5173C63.8031 23.0183 73.4636 19.5277 92.2711 6.69231C92.2165 8.09766 92.0508 9.24132 92.0776 10.2846C92.0583 11.4748 92.0498 12.7331 92.3016 13.8803C92.3557 14.2209 93.0632 14.7369 93.4807 14.7404C93.8982 14.7439 94.5002 14.1594 94.5816 13.7973C95.2821 10.334 95.847 6.8922 96.4688 3.37155C96.6345 2.22789 96.0979 1.47516 94.8916 1.31772C90.3127 0.928063 85.723 0.470295 81.0872 0.159528C80.038 0.116763 78.8613 0.583102 77.5057 0.798533C79.0556 3.55504 81.4416 2.8267 83.3229 3.29588C85.2829 3.82241 87.3242 3.98682 89.8264 4.42717C84.8069 9.13553 79.4923 12.4243 73.6981 14.8815C52.4896 23.9783 31.4197 22.5781 10.6747 13.1652C7.97482 11.9183 5.43502 10.3666 2.79212 9.04078C1.99242 8.8187 1.26049 8.58586 -7.17494e-06 8.08784Z" fill="#DF6951"/>
</svg>
